<?xml version="1.0" standalone="no"?>
<!DOCTYPE svg PUBLIC "-//W3C//DTD SVG 20010904//EN"
 "http://www.w3.org/TR/2001/REC-SVG-20010904/DTD/svg10.dtd">
<svg version="1.0" xmlns="http://www.w3.org/2000/svg"
 width="449.000000pt" height="303.000000pt" viewBox="0 0 449.000000 303.000000"
 preserveAspectRatio="xMidYMid meet">

<g transform="translate(0.000000,303.000000) scale(0.100000,-0.100000)"
fill="#000000" stroke="none">
<path d="M2240 2640 c-8 -11 -22 -20 -32 -20 -10 0 -18 -4 -18 -10 0 -5 -9
-10 -21 -10 -11 0 -17 -4 -14 -10 3 -5 -1 -10 -9 -10 -9 0 -16 -4 -16 -10 0
-5 -9 -10 -20 -10 -11 0 -20 -4 -20 -10 0 -5 -9 -10 -20 -10 -11 0 -20 -4 -20
-10 0 -5 -9 -10 -20 -10 -11 0 -20 -4 -20 -10 0 -5 -7 -10 -15 -10 -9 0 -25
-9 -37 -20 -12 -11 -28 -20 -35 -20 -7 0 -13 -4 -13 -10 0 -5 -9 -10 -20 -10
-11 0 -20 -4 -20 -10 0 -5 -9 -10 -20 -10 -11 0 -20 -4 -20 -10 0 -5 -9 -10
-20 -10 -11 0 -20 -4 -20 -10 0 -5 -9 -10 -21 -10 -11 0 -17 -4 -14 -10 3 -5
-3 -10 -14 -10 -12 0 -21 -4 -21 -10 0 -6 -117 -10 -330 -10 -213 0 -330 -4
-330 -10 0 -5 -20 -10 -45 -10 -25 0 -45 -4 -45 -10 0 -5 -18 -10 -40 -10 -22
0 -40 -4 -40 -10 0 -5 -13 -10 -30 -10 -16 0 -30 -4 -30 -10 0 -5 -13 -10 -28
-10 -16 0 -34 -8 -42 -20 -8 -11 -20 -20 -27 -20 -7 0 -13 -4 -13 -10 0 -5 -7
-10 -15 -10 -8 0 -15 -7 -15 -15 0 -8 -4 -15 -10 -15 -5 0 -10 -7 -10 -15 0
-8 -4 -15 -10 -15 -5 0 -10 -9 -10 -20 0 -11 -4 -20 -10 -20 -5 0 -10 -18 -10
-39 0 -22 -4 -43 -10 -46 -5 -3 -10 -26 -10 -51 0 -28 4 -43 10 -39 6 4 10
-12 10 -39 0 -25 5 -46 10 -46 15 0 12 -70 -4 -86 -8 -8 -22 -14 -30 -14 -9 0
-16 -4 -16 -10 0 -5 -9 -10 -20 -10 -11 0 -20 -4 -20 -10 0 -5 -9 -10 -20 -10
-11 0 -20 -4 -20 -10 0 -5 -7 -10 -16 -10 -8 0 -12 -4 -9 -10 3 -5 -3 -10 -14
-10 -12 0 -21 -4 -21 -10 0 -5 -9 -10 -20 -10 -11 0 -20 -4 -20 -10 0 -5 -9
-10 -20 -10 -11 0 -20 -4 -20 -10 0 -5 -9 -10 -20 -10 -11 0 -20 -3 -20 -8 0
-4 -13 -13 -30 -20 -29 -13 -41 -32 -20 -32 6 0 10 -7 10 -16 0 -20 24 -44 44
-44 9 0 16 -4 16 -10 0 -5 9 -10 20 -10 11 0 20 -4 20 -10 0 -5 9 -10 20 -10
11 0 20 -4 20 -10 0 -5 9 -10 20 -10 11 0 20 -4 20 -10 0 -5 7 -10 15 -10 8 0
15 -4 15 -10 0 -5 7 -10 15 -10 8 0 15 -4 15 -10 0 -5 9 -10 20 -10 11 0 20
-4 20 -10 0 -5 9 -10 20 -10 18 0 20 -7 20 -88 0 -76 -3 -89 -20 -102 -16 -12
-20 -26 -20 -77 0 -35 -4 -63 -10 -63 -5 0 -10 -18 -10 -40 0 -22 -4 -40 -10
-40 -5 0 -10 -20 -10 -45 0 -25 -4 -45 -10 -45 -5 0 -10 -22 -10 -50 0 -43 3
-50 20 -50 11 0 20 -4 20 -10 0 -15 147 -13 153 3 3 9 8 9 18 -2 9 -9 9 -11 1
-7 -7 4 -12 1 -12 -8 0 -9 -4 -16 -10 -16 -5 0 -10 -5 -10 -11 0 -11 -41 -54
-88 -92 -24 -18 -72 -23 -72 -7 0 6 -9 10 -20 10 -11 0 -20 5 -20 10 0 6 -7
10 -16 10 -8 0 -33 18 -54 40 -21 22 -43 40 -48 40 -6 0 -33 22 -61 50 -28 27
-53 50 -56 50 -3 0 -5 -18 -5 -40 0 -22 5 -40 10 -40 6 0 10 -7 10 -15 0 -16
103 -125 119 -125 5 0 32 -22 60 -50 28 -27 57 -50 64 -50 7 0 19 -9 27 -20 8
-11 22 -20 32 -20 10 0 18 -4 18 -10 0 -5 7 -10 15 -10 8 0 15 -4 15 -10 0 -6
31 -10 73 -10 61 0 75 3 87 20 8 11 20 20 27 20 15 0 123 104 123 118 0 5 14
23 30 40 17 18 30 38 30 45 0 7 9 19 20 27 11 8 20 22 20 32 0 10 5 18 10 18
6 0 10 9 10 20 0 11 5 20 10 20 6 0 10 9 10 21 0 11 5 17 10 14 6 -3 10 3 10
14 0 12 5 21 10 21 6 0 10 7 10 15 0 8 5 15 10 15 6 0 10 9 10 20 0 11 5 20
10 20 6 0 10 9 10 20 0 11 5 20 10 20 6 0 10 7 10 16 0 8 6 22 14 30 17 16 46
19 46 4 0 -5 -4 -10 -10 -10 -6 0 -10 -72 -10 -195 0 -123 -4 -195 -10 -195
-6 0 -10 -58 -10 -155 0 -97 4 -155 10 -155 6 0 10 -9 10 -20 0 -20 7 -20 526
-20 347 0 523 -3 519 -10 -4 -7 177 -10 534 -10 534 0 541 0 541 20 0 13 -7
20 -20 20 -20 0 -20 7 -20 340 0 220 4 340 10 340 6 0 10 -6 10 -13 0 -7 9
-23 20 -35 11 -12 20 -28 20 -37 0 -8 5 -15 10 -15 6 0 10 -9 10 -20 0 -11 5
-20 10 -20 6 0 10 -9 10 -20 0 -11 5 -20 10 -20 6 0 10 -7 10 -15 0 -8 5 -15
10 -15 6 0 10 -7 10 -15 0 -8 5 -15 10 -15 6 0 10 -9 10 -21 0 -11 5 -17 10
-14 6 3 10 -1 10 -9 0 -9 5 -16 10 -16 6 0 10 -7 10 -15 0 -8 5 -15 10 -15 6
0 10 -5 10 -10 0 -16 128 -140 145 -140 8 0 15 -4 15 -10 0 -5 9 -10 20 -10
11 0 20 -4 20 -10 0 -5 23 -10 50 -10 28 0 50 5 50 10 0 6 11 10 25 10 14 0
25 5 25 10 0 6 7 10 15 10 8 0 15 5 15 10 0 6 7 10 15 10 8 0 29 13 47 30 17
16 35 30 40 30 4 0 51 43 103 95 84 84 95 99 95 130 0 19 5 35 10 35 6 0 10 5
10 10 0 24 -38 2 -92 -53 -31 -31 -63 -57 -70 -57 -8 0 -20 -9 -28 -20 -8 -11
-20 -20 -27 -20 -7 0 -13 -4 -13 -10 0 -5 -9 -10 -20 -10 -11 0 -20 -4 -20
-10 0 -5 -18 -10 -40 -10 -36 0 -47 7 -103 63 -34 34 -68 75 -76 90 -8 15 -18
27 -23 27 -4 0 -8 7 -8 15 0 8 -4 15 -10 15 -5 0 -10 7 -10 15 0 8 -4 15 -10
15 -5 0 -10 8 -10 18 0 10 -9 24 -20 32 -11 8 -20 22 -20 32 0 10 -4 18 -10
18 -5 0 -10 7 -10 15 0 8 -4 15 -10 15 -5 0 -10 7 -10 15 0 8 -4 15 -10 15 -5
0 -10 8 -10 18 0 10 -9 24 -20 32 -11 8 -20 22 -20 32 0 10 -4 18 -10 18 -5 0
-10 14 -10 30 0 23 4 30 20 30 11 0 20 5 20 10 0 6 9 10 20 10 11 0 20 5 20
10 0 6 9 10 20 10 11 0 20 5 20 10 0 6 7 10 15 10 8 0 15 5 15 10 0 6 7 10 15
10 8 0 15 5 15 10 0 6 9 10 20 10 11 0 20 5 20 10 0 6 9 10 20 10 11 0 20 5
20 10 0 6 9 10 20 10 11 0 20 5 20 10 0 6 9 10 20 10 11 0 20 5 20 10 0 6 9
10 20 10 11 0 20 5 20 10 0 6 9 10 20 10 19 0 20 -7 20 -98 0 -86 -2 -99 -20
-112 -16 -12 -20 -26 -20 -77 0 -35 -4 -63 -10 -63 -5 0 -10 -20 -10 -45 0
-25 -4 -45 -10 -45 -5 0 -10 -18 -10 -40 0 -22 -4 -40 -10 -40 -5 0 -10 -22
-10 -50 0 -47 2 -50 25 -50 14 0 25 -4 25 -10 0 -13 114 -13 138 -1 9 5 25 12
35 15 12 4 17 16 17 41 0 19 -4 35 -10 35 -5 0 -10 20 -10 45 0 25 -4 45 -10
45 -5 0 -10 21 -10 46 0 27 -4 43 -10 39 -6 -4 -10 21 -10 67 0 62 -3 76 -20
88 -18 13 -20 26 -20 128 0 117 8 142 44 142 9 0 16 5 16 10 0 6 9 10 20 10
11 0 20 5 20 10 0 6 9 10 20 10 11 0 20 5 20 10 0 6 9 10 20 10 11 0 20 5 20
10 0 6 9 10 20 10 11 0 20 5 20 10 0 15 58 12 62 -2 3 -9 9 -8 22 5 15 15 16
19 2 32 -8 8 -22 15 -30 15 -9 0 -16 5 -16 10 0 6 -9 10 -20 10 -11 0 -20 5
-20 10 0 6 -9 10 -20 10 -11 0 -20 5 -20 10 0 6 -9 10 -20 10 -11 0 -20 5 -20
10 0 6 -7 10 -15 10 -8 0 -15 5 -15 10 0 6 -7 10 -15 10 -8 0 -15 5 -15 10 0
6 -9 10 -20 10 -11 0 -20 5 -20 10 0 6 -9 10 -20 10 -11 0 -20 5 -20 10 0 6
-9 10 -20 10 -11 0 -20 5 -20 10 0 6 -9 10 -20 10 -11 0 -20 5 -20 10 0 6 -7
10 -16 10 -8 0 -12 5 -9 10 3 6 -3 10 -14 10 -18 0 -21 6 -21 40 0 22 5 40 10
40 6 0 10 45 10 115 0 70 -4 115 -10 115 -5 0 -10 11 -10 25 0 14 -4 25 -10
25 -5 0 -10 7 -10 15 0 18 -64 85 -80 85 -6 0 -8 5 -5 10 3 6 -3 10 -14 10
-12 0 -21 5 -21 10 0 6 -11 10 -25 10 -14 0 -25 5 -25 10 0 6 -13 10 -30 10
-16 0 -30 5 -30 10 0 6 -22 10 -50 10 -27 0 -50 5 -50 10 0 6 -37 10 -90 10
-53 0 -90 4 -90 10 0 6 -80 10 -220 10 -140 0 -220 -4 -220 -10 0 -5 -11 -10
-25 -10 -14 0 -25 5 -25 10 0 6 -9 10 -20 10 -11 0 -20 5 -20 10 0 6 -9 10
-20 10 -11 0 -20 5 -20 10 0 6 -9 10 -20 10 -11 0 -20 5 -20 10 0 6 -9 10 -20
10 -11 0 -20 5 -20 10 0 6 -9 10 -20 10 -11 0 -20 5 -20 10 0 6 -9 10 -21 10
-11 0 -17 5 -14 10 3 6 -1 10 -9 10 -9 0 -16 5 -16 10 0 6 -9 10 -20 10 -11 0
-20 5 -20 10 0 6 -9 10 -20 10 -11 0 -20 5 -20 10 0 6 -9 10 -20 10 -11 0 -20
5 -20 10 0 6 -7 10 -15 10 -9 0 -25 9 -37 20 -12 11 -28 20 -35 20 -7 0 -13 5
-13 10 0 6 -9 10 -20 10 -11 0 -20 5 -20 10 0 16 -15 11 -30 -10z m50 -50 c0
-5 9 -10 20 -10 11 0 20 -4 20 -10 0 -5 9 -10 20 -10 11 0 20 -4 20 -10 0 -5
9 -10 20 -10 11 0 20 -4 20 -9 0 -5 14 -14 30 -21 17 -7 30 -16 30 -21 0 -5 9
-9 20 -9 11 0 20 -4 20 -10 0 -5 9 -10 20 -10 11 0 20 -4 20 -10 0 -5 9 -10
20 -10 11 0 20 -4 20 -10 0 -5 9 -10 20 -10 11 0 20 -4 20 -10 0 -5 7 -10 15
-10 8 0 15 -4 15 -10 0 -5 7 -10 15 -10 8 0 15 -4 15 -10 0 -5 -9 -10 -20 -10
-11 0 -20 -4 -20 -10 0 -5 -13 -10 -30 -10 -28 0 -30 -2 -30 -40 0 -22 5 -40
10 -40 6 0 10 5 10 10 0 6 30 10 70 10 56 0 70 -3 70 -15 0 -8 -4 -15 -10 -15
-5 0 -10 -22 -10 -50 0 -27 -4 -50 -10 -50 -5 0 -10 -22 -10 -50 0 -27 -4 -50
-10 -50 -5 0 -10 -22 -10 -49 0 -35 -4 -51 -16 -55 -9 -3 -217 -6 -463 -6
-350 0 -448 3 -450 13 -1 6 -4 33 -7 60 -3 26 -10 47 -15 47 -5 0 -9 22 -9 48
0 26 -5 53 -11 59 -6 6 -9 23 -7 39 3 27 6 29 52 32 28 2 59 -1 70 -7 12 -5
38 -11 59 -13 35 -4 37 -2 37 25 0 38 -21 57 -64 57 -20 0 -36 5 -36 10 0 6
-13 10 -30 10 -16 0 -30 5 -30 10 0 6 9 10 20 10 11 0 20 5 20 10 0 6 8 10 18
10 10 0 24 9 32 20 8 11 22 20 32 20 10 0 18 5 18 10 0 6 9 10 20 10 11 0 20
5 20 10 0 6 9 10 20 10 11 0 20 5 20 10 0 6 9 10 20 10 11 0 20 5 20 10 0 6 7
10 15 10 8 0 15 5 15 10 0 6 7 10 15 10 8 0 15 5 15 10 0 6 9 10 20 10 11 0
20 5 20 10 0 6 9 10 20 10 11 0 20 5 20 10 0 6 9 10 20 10 11 0 20 3 20 8 0 9
40 29 63 31 9 0 17 -3 17 -9z m950 -300 c0 -5 18 -10 40 -10 22 0 40 -4 40
-10 0 -5 11 -10 25 -10 14 0 25 -4 25 -10 0 -5 9 -10 20 -10 11 0 20 -4 20
-10 0 -5 7 -10 15 -10 20 0 85 -65 85 -85 0 -8 5 -15 10 -15 6 0 10 -11 10
-25 0 -14 5 -25 10 -25 6 0 10 -25 10 -55 0 -48 -2 -55 -20 -55 -11 0 -20 5
-20 10 0 6 -9 10 -20 10 -11 0 -20 5 -20 10 0 6 -8 10 -18 10 -10 0 -24 9 -32
20 -8 11 -22 20 -32 20 -10 0 -18 5 -18 10 0 6 -9 10 -20 10 -11 0 -20 5 -20
10 0 6 -9 10 -20 10 -11 0 -20 5 -20 10 0 6 -9 10 -20 10 -11 0 -20 5 -20 10
0 6 -9 10 -21 10 -11 0 -18 4 -15 8 3 5 -10 15 -29 22 -19 8 -35 17 -35 22 0
4 -9 8 -20 8 -11 0 -20 5 -20 10 0 6 -9 10 -20 10 -11 0 -20 5 -20 10 0 6 -7
10 -16 10 -23 0 -44 25 -44 54 l0 26 115 0 c70 0 115 -4 115 -10z m-1810 -56
c0 -15 4 -23 11 -19 6 4 5 -2 -3 -14 -7 -12 -21 -21 -30 -21 -10 0 -18 -4 -18
-10 0 -5 -9 -10 -20 -10 -11 0 -20 -4 -20 -10 0 -5 -7 -10 -15 -10 -8 0 -15
-4 -15 -10 0 -5 -7 -10 -15 -10 -8 0 -15 -4 -15 -10 0 -5 -9 -10 -20 -10 -11
0 -20 -4 -20 -10 0 -5 -9 -10 -20 -10 -11 0 -20 -4 -20 -10 0 -5 -9 -10 -20
-10 -11 0 -20 -4 -20 -10 0 -5 -9 -10 -20 -10 -11 0 -20 -4 -20 -10 0 -5 -7
-10 -15 -10 -8 0 -15 -4 -15 -10 0 -5 -7 -10 -15 -10 -8 0 -15 -4 -15 -10 0
-5 -9 -10 -20 -10 -11 0 -20 -4 -20 -10 0 -5 -9 -10 -20 -10 -11 0 -20 -4 -20
-10 0 -5 -9 -10 -20 -10 -11 0 -20 -4 -20 -10 0 -5 -9 -10 -20 -10 -18 0 -20
7 -20 65 0 36 3 65 8 65 4 0 13 14 21 32 19 43 96 118 121 118 11 0 20 5 20
10 0 6 11 10 25 10 14 0 25 5 25 10 0 6 25 10 55 10 30 0 55 5 55 10 0 6 38
10 95 10 l95 0 0 -26z m1600 -44 c0 -5 7 -10 15 -10 9 0 25 -9 37 -20 12 -11
28 -20 35 -20 7 0 13 -4 13 -10 0 -5 9 -10 20 -10 11 0 20 -4 20 -10 0 -5 9
-10 20 -10 11 0 20 -4 20 -10 0 -5 9 -10 20 -10 11 0 20 -4 20 -10 0 -5 8 -10
18 -10 10 0 24 -9 32 -20 8 -11 22 -20 32 -20 10 0 18 -4 18 -10 0 -5 9 -10
20 -10 11 0 20 -4 20 -10 0 -5 9 -10 20 -10 11 0 20 -4 20 -10 0 -5 9 -10 20
-10 11 0 20 -4 20 -10 0 -5 7 -10 15 -10 8 0 15 -4 15 -10 0 -5 5 -10 11 -10
21 0 39 -29 39 -64 0 -20 -4 -36 -10 -36 -5 0 -10 -13 -10 -30 0 -16 -4 -30
-10 -30 -5 0 -10 -11 -10 -25 0 -14 -4 -25 -10 -25 -5 0 -10 -8 -10 -18 0 -10
-9 -28 -20 -40 -11 -12 -20 -26 -20 -32 0 -5 -4 -10 -10 -10 -6 0 -10 62 -10
165 l0 165 -240 0 -240 0 0 30 c0 17 5 30 10 30 6 0 10 23 10 50 0 28 5 50 10
50 6 0 10 23 10 50 0 43 3 50 20 50 11 0 20 -4 20 -10z m-1580 -70 c0 -11 5
-20 10 -20 6 0 10 -20 10 -45 0 -25 5 -45 10 -45 6 0 10 -16 10 -35 l0 -35
-210 0 c-133 0 -210 4 -210 10 0 6 9 10 20 10 11 0 20 5 20 10 0 6 9 10 20 10
11 0 20 5 20 10 0 6 9 10 20 10 11 0 20 5 20 10 0 6 7 10 15 10 8 0 15 5 15
10 0 6 7 10 15 10 8 0 15 5 15 10 0 6 9 10 20 10 11 0 20 5 20 10 0 6 9 10 20
10 11 0 20 5 20 10 0 6 9 10 20 10 11 0 20 5 20 10 0 6 9 10 21 10 11 0 17 5
14 10 -4 6 5 10 19 10 19 0 26 -5 26 -20z m1170 -210 c0 -5 7 -10 15 -10 8 0
15 -4 15 -10 0 -5 9 -10 20 -10 13 0 20 7 20 20 0 20 7 20 360 20 l360 0 0
-260 0 -260 -1210 0 -1210 0 0 248 c0 180 3 251 12 260 16 16 1618 18 1618 2z
m-1650 -130 c0 -60 -4 -100 -10 -100 -5 0 -10 9 -10 20 0 11 -4 20 -10 20 -5
0 -10 13 -10 29 0 17 -4 33 -10 36 -14 9 -12 63 3 80 6 8 20 14 30 15 15 0 17
-11 17 -100z m2820 -10 c0 -5 9 -10 20 -10 11 0 20 -4 20 -10 0 -5 9 -10 20
-10 11 0 20 -4 20 -10 0 -5 9 -10 20 -10 11 0 20 -4 20 -10 0 -5 7 -10 15 -10
8 0 15 -4 15 -10 0 -5 7 -10 15 -10 8 0 15 -4 15 -10 0 -5 9 -10 20 -10 11 0
20 -4 20 -10 0 -5 9 -10 20 -10 11 0 20 -4 20 -10 0 -5 9 -10 20 -10 11 0 20
-4 20 -10 0 -5 7 -10 16 -10 15 0 44 -23 44 -34 0 -3 -9 -6 -20 -6 -11 0 -20
-4 -20 -10 0 -5 -8 -10 -18 -10 -10 0 -24 -9 -32 -20 -8 -11 -22 -20 -32 -20
-10 0 -18 -4 -18 -10 0 -5 -9 -10 -20 -10 -11 0 -20 -4 -20 -10 0 -5 -4 -10
-10 -10 -6 0 -10 27 -10 60 0 53 -2 60 -20 60 -18 0 -20 -7 -20 -66 0 -67 -13
-94 -44 -94 -9 0 -16 -4 -16 -10 0 -5 -9 -10 -20 -10 -11 0 -20 -4 -20 -10 0
-5 -7 -10 -15 -10 -8 0 -15 -4 -15 -10 0 -5 -7 -10 -15 -10 -8 0 -15 -4 -15
-10 0 -5 -9 -10 -20 -10 -11 0 -20 -4 -20 -10 0 -5 -9 -10 -20 -10 -11 0 -20
-4 -20 -10 0 -5 -9 -10 -20 -10 -11 0 -20 -4 -20 -10 0 -5 -9 -10 -20 -10 -11
0 -20 -4 -20 -10 0 -5 -9 -10 -20 -10 -11 0 -20 -4 -20 -10 0 -5 -9 -10 -21
-10 -11 0 -17 -4 -14 -10 3 -5 -1 -10 -9 -10 -9 0 -16 -4 -16 -10 0 -5 -7 -10
-16 -10 -18 0 -44 23 -44 39 0 6 -4 11 -10 11 -5 0 -10 7 -10 15 0 8 -4 15
-10 15 -5 0 -10 8 -10 18 0 10 -9 24 -20 32 -11 8 -20 22 -20 32 0 14 8 18 40
18 l40 0 0 40 c0 29 4 40 15 40 8 0 15 5 15 10 0 6 7 10 15 10 8 0 15 5 15 10
0 6 7 10 15 10 8 0 29 14 47 30 17 17 35 30 40 30 12 0 138 127 138 140 0 5 5
10 10 10 6 0 10 7 10 15 0 8 5 15 10 15 6 0 10 9 10 20 0 11 5 20 10 20 6 0
10 -4 10 -10z m-3083 -67 c8 -20 149 -163 161 -163 5 0 23 -13 40 -30 18 -16
39 -30 47 -30 11 0 15 -12 15 -50 l0 -50 70 0 c77 0 88 -11 50 -52 -11 -12
-20 -28 -20 -35 0 -7 -4 -13 -10 -13 -5 0 -10 -8 -10 -18 0 -10 -9 -24 -20
-32 -11 -8 -20 -22 -20 -32 0 -13 -8 -18 -30 -18 -16 0 -30 5 -30 10 0 6 -9
10 -20 10 -11 0 -20 5 -20 10 0 6 -9 10 -20 10 -11 0 -20 5 -20 10 0 6 -7 10
-15 10 -8 0 -15 5 -15 10 0 6 -7 10 -15 10 -8 0 -15 5 -15 10 0 6 -9 10 -20
10 -11 0 -20 5 -20 10 0 6 -9 10 -20 10 -11 0 -20 5 -20 10 0 6 -9 10 -20 10
-11 0 -20 5 -20 10 0 6 -9 10 -20 10 -19 0 -20 7 -20 110 0 103 -1 110 -20
110 -19 0 -20 -7 -20 -90 0 -53 -4 -90 -10 -90 -5 0 -10 5 -10 10 0 6 -9 10
-20 10 -11 0 -20 5 -20 10 0 6 -9 10 -20 10 -11 0 -20 5 -20 10 0 6 -9 10 -20
10 -11 0 -20 5 -20 10 0 6 -9 10 -20 10 -11 0 -20 5 -20 10 0 6 -7 10 -16 10
-8 0 -12 5 -9 10 3 6 -3 10 -14 10 -12 0 -21 5 -21 10 0 6 -9 10 -20 10 -11 0
-20 3 -20 6 0 10 28 34 39 34 6 0 11 5 11 10 0 6 7 10 15 10 8 0 15 5 15 10 0
6 9 10 20 10 11 0 20 5 20 10 0 6 9 10 20 10 11 0 20 5 20 10 0 6 9 10 20 10
11 0 20 5 20 10 0 6 9 10 20 10 11 0 20 5 20 10 0 6 7 10 15 10 8 0 15 5 15
10 0 6 7 10 15 10 8 0 15 5 15 10 0 18 70 12 77 -7z m1858 -333 c3 -5 1 -10
-4 -10 -6 0 -11 -21 -11 -50 0 -27 -4 -50 -10 -50 -5 0 -10 -22 -10 -50 0 -27
-4 -50 -10 -50 -5 0 -10 -22 -10 -50 0 -27 -4 -50 -10 -50 -5 0 -10 -18 -10
-40 0 -22 -4 -40 -10 -40 -5 0 -10 -16 -10 -35 0 -19 -4 -35 -10 -35 -5 0 -10
-11 -10 -25 0 -14 -4 -25 -10 -25 -5 0 -10 -11 -10 -25 0 -14 -4 -25 -10 -25
-5 0 -10 -7 -10 -15 0 -8 -4 -15 -10 -15 -5 0 -10 -7 -10 -15 0 -23 -66 -85
-90 -85 -12 0 -18 -4 -15 -10 4 -6 -12 -10 -39 -10 -25 0 -46 -4 -46 -10 0 -5
-9 -10 -21 -10 -11 0 -17 5 -14 10 4 6 -5 10 -20 10 -26 0 -95 58 -95 80 0 5
-4 10 -10 10 -5 0 -10 7 -10 15 0 8 -4 15 -10 15 -5 0 -10 14 -10 30 0 17 -4
30 -10 30 -5 0 -10 14 -10 31 0 17 -4 28 -10 24 -6 -4 -10 10 -10 34 0 23 -4
41 -10 41 -5 0 -10 20 -10 45 0 25 -4 45 -10 45 -5 0 -10 25 -10 55 0 30 -4
55 -10 55 -5 0 -10 20 -10 44 0 24 -4 46 -9 48 -4 2 -10 29 -13 61 l-5 57 338
0 c214 0 340 -4 344 -10z m-1044 -50 l109 0 0 -55 c0 -30 5 -55 10 -55 6 0 10
-18 10 -40 0 -22 5 -40 10 -40 6 0 10 -11 10 -24 0 -14 5 -28 10 -31 6 -3 10
-17 10 -31 0 -13 5 -24 10 -24 6 0 10 -9 10 -20 0 -11 5 -20 10 -20 6 0 10 -9
10 -20 0 -11 5 -20 10 -20 6 0 10 -8 10 -18 0 -10 9 -24 20 -32 11 -8 20 -20
20 -27 0 -16 185 -203 201 -203 16 0 39 -26 39 -44 0 -9 -4 -16 -10 -16 -5 0
-10 5 -10 10 0 6 -9 10 -20 10 -11 0 -20 5 -20 10 0 6 -7 10 -15 10 -9 0 -25
9 -37 20 -12 11 -28 20 -35 20 -7 0 -13 5 -13 10 0 6 -9 10 -20 10 -11 0 -20
5 -20 10 0 6 -9 10 -20 10 -11 0 -20 5 -20 10 0 6 -9 10 -20 10 -11 0 -20 5
-20 10 0 6 -7 10 -15 10 -8 0 -15 4 -15 8 0 5 -16 14 -35 22 -19 8 -35 17 -35
22 0 4 -9 8 -20 8 -11 0 -20 5 -20 10 0 6 -9 10 -20 10 -11 0 -20 5 -20 10 0
6 -9 10 -20 10 -11 0 -20 5 -20 10 0 6 -7 10 -15 10 -8 0 -15 5 -15 10 0 6 -7
10 -15 10 -8 0 -15 5 -15 10 0 6 -9 10 -20 10 -11 0 -20 5 -20 10 0 6 -9 10
-20 10 -11 0 -20 5 -20 10 0 6 -9 10 -20 10 -11 0 -20 5 -20 10 0 6 -9 10 -20
10 -11 0 -20 5 -20 10 0 6 -7 10 -15 10 -23 0 -65 46 -65 70 0 11 5 20 10 20
6 0 10 7 10 15 0 8 5 15 10 15 6 0 10 9 10 20 0 11 5 20 10 20 6 0 10 9 10 20
0 11 5 20 10 20 6 0 10 7 10 15 0 8 5 15 10 15 6 0 10 7 10 15 0 8 5 15 10 15
6 0 10 7 10 16 0 20 53 69 58 54 2 -6 49 -10 113 -10z m1569 5 c0 -9 9 -25 20
-37 11 -12 20 -28 20 -35 0 -7 5 -13 10 -13 6 0 10 -9 10 -20 0 -11 5 -20 10
-20 6 0 10 -9 10 -20 0 -11 5 -20 10 -20 6 0 10 -9 10 -20 0 -11 4 -20 9 -20
5 0 11 -13 13 -30 3 -20 0 -30 -9 -30 -7 0 -13 -4 -13 -10 0 -5 -9 -10 -20
-10 -11 0 -20 -4 -20 -10 0 -5 -9 -10 -20 -10 -11 0 -20 -4 -20 -10 0 -5 -9
-10 -20 -10 -11 0 -20 -4 -20 -10 0 -5 -9 -10 -20 -10 -11 0 -20 -4 -20 -10 0
-5 -7 -10 -16 -10 -8 0 -22 -7 -31 -15 -8 -8 -19 -12 -25 -9 -7 4 -8 2 -4 -4
4 -7 1 -12 -8 -12 -9 0 -16 -4 -16 -10 0 -5 -9 -10 -20 -10 -11 0 -20 -4 -20
-10 0 -5 -9 -10 -20 -10 -11 0 -20 -4 -20 -10 0 -5 -9 -10 -20 -10 -11 0 -20
-4 -20 -10 0 -5 -9 -10 -20 -10 -11 0 -20 -4 -20 -10 0 -5 -9 -10 -20 -10 -11
0 -20 -4 -20 -10 0 -5 -6 -10 -13 -10 -7 0 -23 -9 -35 -20 -12 -11 -28 -20
-37 -20 -8 0 -15 -4 -15 -10 0 -5 -9 -10 -20 -10 -11 0 -20 -4 -20 -10 0 -5
-9 -10 -20 -10 -11 0 -20 -4 -20 -10 0 -5 -9 -10 -20 -10 -11 0 -20 -4 -20
-10 0 -5 -9 -10 -20 -10 -11 0 -20 -4 -20 -10 0 -5 -7 -10 -15 -10 -8 0 -15
-4 -15 -10 0 -5 -11 -10 -25 -10 -14 0 -25 5 -25 10 0 6 7 10 16 10 9 0 29 14
44 30 15 17 33 30 39 30 16 0 161 147 161 163 0 7 9 19 20 27 11 8 20 21 20
30 0 9 9 22 20 30 11 8 20 22 20 32 0 10 5 18 10 18 6 0 10 11 10 25 0 14 5
25 10 25 6 0 10 14 10 30 0 17 5 30 10 30 6 0 10 16 10 35 0 19 5 35 10 35 6
0 10 20 10 45 0 25 5 45 10 45 6 0 10 11 10 25 l0 25 130 0 c110 0 130 -2 130
-15z m-2388 -45 c12 -11 28 -20 35 -20 7 0 13 -4 13 -10 0 -5 9 -10 20 -10 11
0 20 -4 20 -10 0 -5 9 -10 20 -10 11 0 20 -4 20 -10 0 -5 9 -10 20 -10 11 0
20 -4 20 -10 0 -5 7 -10 15 -10 8 0 15 -4 15 -10 0 -5 9 -10 20 -10 11 0 20
-4 20 -10 0 -5 7 -10 15 -10 8 0 15 -4 15 -10 0 -5 -4 -10 -10 -10 -5 0 -10
-9 -10 -20 0 -11 -4 -20 -10 -20 -5 0 -10 -7 -10 -15 0 -9 -9 -25 -20 -37 -11
-12 -20 -28 -20 -35 0 -7 -4 -13 -10 -13 -5 0 -10 -9 -10 -20 0 -11 -4 -20
-10 -20 -5 0 -10 -7 -10 -15 0 -8 -4 -15 -10 -15 -5 0 -10 -7 -10 -15 0 -8 -4
-15 -10 -15 -5 0 -10 -7 -10 -15 0 -9 -9 -25 -20 -37 -11 -12 -20 -28 -20 -35
0 -7 -4 -13 -10 -13 -5 0 -10 9 -10 20 0 11 -4 20 -10 20 -5 0 -10 20 -10 45
0 25 -4 45 -10 45 -5 0 -10 20 -10 45 0 25 -4 45 -10 45 -6 0 -10 29 -10 68 0
56 -3 70 -20 82 -17 12 -20 26 -20 82 0 75 12 86 52 48z m2554 -254 c16 -17
19 -46 4 -46 -6 0 -10 -127 -10 -360 l0 -360 -502 5 c-277 3 -731 7 -1010 10
l-508 5 0 200 c0 127 4 200 10 200 6 0 10 57 10 150 0 93 4 150 10 150 6 0 10
-4 10 -10 0 -5 9 -10 20 -10 11 0 20 -4 20 -10 0 -5 7 -10 15 -10 8 0 15 -4
15 -10 0 -5 7 -10 15 -10 8 0 15 -4 15 -10 0 -5 9 -10 20 -10 11 0 20 -4 20
-10 0 -5 9 -10 20 -10 11 0 20 -4 20 -10 0 -5 9 -10 20 -10 11 0 20 -4 20 -10
0 -5 9 -10 20 -10 11 0 20 -4 20 -10 0 -5 7 -10 15 -10 8 0 15 -4 15 -10 0 -5
7 -10 15 -10 8 0 15 -4 15 -10 0 -5 9 -10 20 -10 11 0 20 -4 20 -10 0 -5 9
-10 20 -10 11 0 20 -4 20 -10 0 -5 9 -10 20 -10 11 0 20 -4 20 -10 0 -5 9 -10
20 -10 11 0 20 -4 20 -10 0 -5 7 -10 15 -10 8 0 15 -4 15 -10 0 -5 7 -10 15
-10 8 0 15 -4 15 -10 0 -5 9 -10 20 -10 11 0 20 -4 20 -10 0 -5 9 -10 20 -10
11 0 20 -4 20 -10 0 -5 9 -10 21 -10 11 0 17 -5 14 -10 -4 -6 -75 -10 -181
-10 -109 0 -174 -4 -174 -10 0 -5 5 -10 10 -10 6 0 10 -5 10 -11 0 -6 15 -26
33 -44 17 -18 50 -53 72 -79 l40 -45 308 -1 c198 0 307 4 307 10 0 6 65 10
175 10 l176 0 44 45 c25 24 45 49 45 55 0 5 5 10 10 10 6 0 10 5 10 11 0 6 14
24 30 39 17 15 30 31 30 34 0 3 -67 6 -150 6 -104 0 -150 3 -150 11 0 6 -9 9
-19 6 -12 -3 -22 1 -25 9 -4 10 2 14 20 14 14 0 22 4 19 10 -3 6 1 10 9 10 9
0 16 5 16 10 0 6 9 10 20 10 11 0 20 5 20 10 0 6 9 10 20 10 11 0 20 5 20 10
0 6 9 10 20 10 11 0 20 5 20 10 0 6 9 10 20 10 11 0 20 5 20 10 0 6 9 10 20
10 11 0 20 5 20 10 0 6 6 10 13 10 7 0 23 9 35 20 12 11 28 20 37 20 8 0 15 5
15 10 0 6 9 10 20 10 11 0 20 5 20 10 0 6 9 10 20 10 11 0 20 5 20 10 0 6 9
10 20 10 11 0 20 5 20 10 0 6 9 10 20 10 11 0 20 5 20 10 0 6 7 10 15 10 9 0
25 9 37 20 12 11 28 20 35 20 7 0 13 5 13 10 0 6 9 10 20 10 11 0 20 5 20 10
0 6 9 10 20 10 11 0 20 5 20 10 0 14 9 12 26 -4z"/>
<path d="M2203 2485 c-18 -19 -33 -41 -33 -50 0 -8 -4 -15 -10 -15 -5 0 -10
-9 -10 -20 0 -11 5 -20 10 -20 6 0 10 -11 10 -25 0 -14 5 -25 10 -25 6 0 9 3
9 8 -6 39 -1 42 90 42 68 0 90 3 94 14 3 8 -1 20 -9 26 -8 7 -14 19 -14 26 0
8 -4 14 -10 14 -5 0 -10 6 -10 14 0 8 -9 18 -20 21 -11 3 -20 11 -20 16 0 23
-57 6 -87 -26z"/>
<path d="M2333 2325 c0 -8 4 -12 9 -9 4 3 8 9 8 15 0 5 -4 9 -8 9 -5 0 -9 -7
-9 -15z"/>
<path d="M2190 2301 c0 -17 25 -41 44 -41 9 0 16 5 16 11 0 5 -4 8 -9 4 -6 -3
-19 5 -30 17 -12 12 -21 16 -21 9z"/>
<path d="M2310 2292 c0 -5 -10 -14 -22 -20 -19 -9 -20 -11 -5 -11 10 -1 25 5
33 13 16 17 18 26 4 26 -5 0 -10 -4 -10 -8z"/>
<path d="M2113 2235 c-13 -13 -23 -28 -23 -32 0 -4 27 -8 60 -8 56 0 60 2 60
23 0 13 -4 20 -10 17 -5 -3 -10 1 -10 9 0 25 -51 19 -77 -9z"/>
<path d="M2321 2229 c-11 -25 -11 -33 -1 -42 10 -9 11 -9 5 1 -6 11 4 13 46
12 30 -1 58 -1 62 -1 14 2 -13 41 -28 41 -8 0 -15 5 -15 10 0 6 -12 10 -28 10
-21 0 -30 -7 -41 -31z"/>
<path d="M2250 2221 c0 -11 5 -23 10 -26 6 -4 10 5 10 19 0 14 -4 26 -10 26
-5 0 -10 -9 -10 -19z"/>
<path d="M2250 2050 c0 -5 5 -10 10 -10 6 0 10 5 10 10 0 6 -4 10 -10 10 -5 0
-10 -4 -10 -10z"/>
<path d="M2563 1885 c-7 -8 -13 -21 -13 -30 0 -8 -4 -15 -10 -15 -5 0 -10 -9
-10 -20 0 -11 -4 -20 -10 -20 -5 0 -10 -20 -10 -45 0 -25 -4 -45 -10 -45 -5 0
-10 -20 -10 -45 0 -25 -4 -45 -10 -45 -5 0 -10 -13 -10 -30 0 -23 4 -30 20
-30 16 0 20 7 20 30 0 17 5 30 10 30 6 0 10 12 10 26 0 17 4 23 13 18 10 -6
10 -4 0 7 -15 16 -17 49 -3 49 6 0 10 23 10 50 0 28 5 50 10 50 6 0 10 14 10
30 0 17 5 30 10 30 6 0 10 5 10 10 0 14 -13 12 -27 -5z"/>
<path d="M2850 1870 c0 -5 5 -10 10 -10 6 0 10 5 10 10 0 6 -4 10 -10 10 -5 0
-10 -4 -10 -10z"/>
<path d="M3281 1864 c-7 -8 -10 -18 -6 -22 4 -4 10 -1 12 6 3 6 13 12 24 12
10 0 19 5 19 10 0 15 -33 11 -49 -6z"/>
<path d="M1661 1844 c-18 -21 -6 -30 14 -11 8 9 15 18 15 21 0 11 -15 5 -29
-10z"/>
<path d="M2830 1850 c0 -5 5 -10 11 -10 5 0 7 5 4 10 -3 6 -8 10 -11 10 -2 0
-4 -4 -4 -10z"/>
<path d="M1110 1770 c0 -5 5 -10 10 -10 6 0 10 -9 10 -20 0 -11 -4 -20 -10
-20 -5 0 -10 -22 -10 -50 0 -27 -4 -50 -10 -50 -5 0 -10 -13 -10 -30 0 -23 4
-30 20 -30 16 0 20 7 20 36 0 25 7 43 23 57 15 13 18 21 10 24 -7 3 -13 17
-13 32 0 15 6 33 13 40 10 11 10 13 0 7 -8 -4 -13 -1 -13 8 0 9 -9 16 -20 16
-11 0 -20 -4 -20 -10z"/>
<path d="M1240 1770 c0 -5 -5 -10 -10 -10 -14 0 -64 -50 -57 -57 3 -3 16 4 28
16 13 12 31 21 42 21 17 0 47 22 47 34 0 3 -11 6 -25 6 -14 0 -25 -4 -25 -10z"/>
<path d="M1420 1770 c0 -5 11 -10 25 -10 22 0 25 -4 25 -33 0 -26 -10 -44 -44
-80 -46 -49 -72 -59 -78 -30 -7 37 5 92 24 113 11 12 18 24 15 27 -9 8 -57
-44 -57 -62 0 -8 -4 -15 -10 -15 -5 0 -10 -15 -10 -34 0 -19 -6 -37 -12 -39
-10 -4 -10 -6 0 -6 6 -1 12 -10 12 -21 0 -35 47 -25 90 20 21 22 41 40 44 40
3 0 6 -18 6 -40 0 -38 2 -40 30 -40 17 0 30 5 30 10 0 6 -4 10 -10 10 -5 0
-10 23 -10 50 0 28 5 50 10 50 6 0 10 15 10 34 0 19 5 38 10 41 24 15 6 25
-45 25 -30 0 -55 -4 -55 -10z"/>
<path d="M1830 1770 c0 -5 14 -10 30 -10 27 0 30 -3 30 -30 0 -16 -4 -30 -10
-30 -6 0 -10 -30 -10 -70 l0 -70 30 0 c17 0 30 5 30 10 0 6 -4 10 -10 10 -6 0
-10 27 -10 60 0 33 4 60 9 60 5 0 11 18 13 40 l4 40 -53 0 c-29 0 -53 -4 -53
-10z"/>
<path d="M2030 1771 c0 -6 5 -11 10 -11 6 0 10 -22 10 -50 0 -27 -4 -50 -10
-50 -5 0 -10 -18 -10 -40 0 -22 -4 -40 -10 -40 -5 0 -10 -4 -10 -10 0 -5 9
-10 20 -10 14 0 20 7 20 21 0 11 5 17 10 14 6 -4 10 5 10 19 0 14 5 26 10 26
6 0 10 9 10 20 0 11 5 20 11 20 8 0 8 4 1 13 -6 6 -12 28 -14 47 -3 30 -7 35
-30 38 -16 2 -28 -1 -28 -7z"/>
<path d="M2142 1744 c-19 -20 -31 -38 -28 -41 3 -4 14 4 25 15 10 12 30 22 44
22 13 0 28 7 31 16 9 23 8 24 -16 23 -13 0 -38 -16 -56 -35z"/>
<path d="M2335 1770 c3 -5 14 -10 25 -10 10 0 21 -7 24 -16 10 -26 7 -114 -4
-114 -5 0 -10 -6 -10 -14 0 -8 -6 -16 -12 -19 -7 -2 -10 -8 -6 -12 4 -4 23 9
42 29 32 31 36 41 36 86 0 31 -6 57 -14 66 -16 16 -91 20 -81 4z"/>
<path d="M2630 1770 c0 -5 -7 -10 -16 -10 -20 0 -44 -24 -44 -43 0 -9 -6 -17
-12 -20 -7 -2 -10 -8 -6 -12 4 -4 21 6 37 24 35 38 61 41 61 7 0 -14 -4 -28
-10 -31 -5 -3 -10 -33 -10 -66 0 -58 1 -59 28 -59 24 1 25 2 10 14 -19 14 -24
46 -8 46 6 0 10 23 10 50 0 28 5 50 10 50 15 0 12 29 -4 46 -17 16 -46 19 -46
4z"/>
<path d="M2842 1773 c-1 -7 -13 -13 -27 -13 -14 0 -25 -4 -25 -10 0 -5 5 -10
10 -10 6 0 10 -9 10 -20 0 -11 -4 -20 -10 -20 -6 0 -10 -30 -10 -70 0 -63 2
-70 20 -70 22 0 27 16 8 23 -10 3 -10 9 0 26 6 11 12 38 12 60 0 22 5 41 11
43 6 2 9 19 6 38 -2 19 -5 29 -5 23z"/>
<path d="M2950 1770 c0 -5 5 -10 10 -10 6 0 10 -7 10 -15 0 -8 -4 -15 -10 -15
-5 0 -10 -20 -10 -45 0 -25 -4 -45 -10 -45 -5 0 -10 -18 -10 -40 0 -33 3 -40
20 -40 17 0 20 7 20 40 0 22 5 40 10 40 6 0 10 6 10 14 0 8 6 16 13 19 10 4
10 7 0 18 -7 7 -13 30 -13 51 0 31 -4 38 -20 38 -11 0 -20 -4 -20 -10z"/>
<path d="M3042 1744 c-37 -39 -37 -59 -1 -25 24 22 54 27 64 11 3 -5 1 -10 -4
-10 -6 0 -11 -20 -11 -45 0 -25 -4 -45 -10 -45 -5 0 -10 -16 -10 -35 0 -32 2
-35 30 -35 17 0 30 5 30 10 0 6 -4 10 -10 10 -5 0 -10 13 -10 29 0 17 5 33 10
36 6 3 10 35 10 71 0 63 0 64 -27 63 -18 0 -40 -13 -61 -35z"/>
<path d="M3290 1770 c0 -5 -10 -10 -23 -10 -22 0 -23 -3 -19 -55 3 -37 1 -55
-7 -55 -6 0 -11 -18 -11 -45 0 -43 1 -45 30 -45 17 0 30 5 30 11 0 5 -4 7 -10
4 -6 -4 -10 12 -10 39 0 25 5 46 10 46 6 0 10 23 10 50 0 28 5 50 10 50 6 0
10 5 10 10 0 6 -4 10 -10 10 -5 0 -10 -4 -10 -10z"/>
<path d="M1610 1750 c0 -5 5 -10 10 -10 6 0 10 -18 10 -40 0 -22 -4 -40 -10
-40 -5 0 -10 -22 -10 -50 0 -27 -4 -50 -10 -50 -5 0 -10 -16 -10 -36 0 -25 -7
-43 -22 -55 -11 -11 -19 -22 -15 -25 7 -7 57 41 57 56 0 5 5 10 10 10 6 0 10
14 10 30 0 17 5 30 10 30 6 0 10 25 10 55 0 30 5 55 10 55 6 0 10 18 10 40 0
38 -2 40 -30 40 -16 0 -30 -4 -30 -10z"/>
<path d="M1763 1725 c-18 -19 -33 -43 -33 -54 0 -11 -4 -23 -10 -26 -15 -9
-12 -54 4 -71 8 -8 24 -14 36 -14 23 0 96 67 85 78 -4 4 -10 1 -12 -5 -3 -7
-11 -13 -19 -13 -8 0 -14 -4 -14 -10 0 -5 -11 -10 -25 -10 -21 0 -25 5 -25 30
0 17 5 30 10 30 6 0 10 13 10 28 0 16 8 34 20 42 20 14 27 31 13 29 -5 0 -23
-16 -40 -34z"/>
<path d="M2295 1750 c3 -5 -1 -10 -9 -10 -9 0 -16 -7 -16 -15 0 -8 -3 -15 -7
-15 -12 0 -33 -51 -33 -77 0 -32 43 -73 75 -73 14 0 25 5 25 10 0 6 -7 10 -16
10 -8 0 -22 6 -30 14 -16 16 -19 86 -4 86 6 0 10 11 10 24 0 16 7 27 20 31 26
8 26 25 -1 25 -11 0 -17 -4 -14 -10z"/>
<path d="M1530 1590 c0 -5 5 -10 10 -10 6 0 10 5 10 10 0 6 -4 10 -10 10 -5 0
-10 -4 -10 -10z"/>
<path d="M2695 1590 c3 -5 8 -10 11 -10 2 0 4 5 4 10 0 6 -5 10 -11 10 -5 0
-7 -4 -4 -10z"/>
<path d="M1460 1430 c0 -5 18 -10 41 -10 24 0 38 4 34 10 -3 6 -22 10 -41 10
-19 0 -34 -4 -34 -10z"/>
</g>
</svg>
